static_00
version=1
nRows=11
nColumns=46
inDegrees=yes
endheader
time	ground_force1_vx	ground_force1_vy	ground_force1_vz	ground_force1_px	ground_force1_py	ground_force1_pz	ground_torque1_x	ground_torque1_y	ground_torque1_z	ground_force2_vx	ground_force2_vy	ground_force2_vz	ground_force2_px	ground_force2_py	ground_force2_pz	ground_torque2_x	ground_torque2_y	ground_torque2_z	ground_force3_vx	ground_force3_vy	ground_force3_vz	ground_force3_px	ground_force3_py	ground_force3_pz	ground_torque3_x	ground_torque3_y	ground_torque3_z	ground_force4_vx	ground_force4_vy	ground_force4_vz	ground_force4_px	ground_force4_py	ground_force4_pz	ground_torque4_x	ground_torque4_y	ground_torque4_z	ground_force5_vx	ground_force5_vy	ground_force5_vz	ground_force5_px	ground_force5_py	ground_force5_pz	ground_torque5_x	ground_torque5_y	ground_torque5_z
1.695000	2.648914	11.948963	0.676571	0.211800	0.000000	0.836687	0.000000	-0.098848	0.000000	-0.000000	-0.000000	0.000000	0.200000	0.000000	0.320000	0.000000	0.000000	-0.000000	-0.000000	-0.000000	0.000000	0.200000	0.000000	-0.300000	0.000000	0.000000	-0.000000	0.637055	819.885742	1.056005	0.242659	0.000000	-0.927709	0.000057	-0.406469	0.000016	-0.000000	-0.000000	0.000000	0.200000	0.000000	-1.500000	0.000000	0.000000	-0.000000	
1.696000	2.325117	8.796507	0.194968	0.222366	0.000000	0.831877	-0.000000	-0.021470	0.000000	-0.000000	-0.000000	0.000000	0.200000	0.000000	0.320000	0.000000	0.000000	-0.000000	-0.000000	-0.000000	0.000000	0.200000	0.000000	-0.300000	0.000000	0.000000	-0.000000	0.795009	819.882324	1.537609	0.243071	0.000000	-0.927380	0.000012	-0.651215	0.000015	-0.000000	-0.000000	0.000000	0.200000	0.000000	-1.500000	0.000000	0.000000	-0.000000	
1.697000	2.648914	7.539027	0.516037	0.208496	0.000000	0.801246	-0.000000	-0.169864	0.000000	-0.000000	-0.000000	0.000000	0.200000	0.000000	0.320000	0.000000	0.000000	-0.000000	-0.000000	-0.000000	0.000000	0.200000	0.000000	-0.300000	0.000000	0.000000	-0.000000	0.637055	819.886353	1.539648	0.242562	0.000000	-0.927684	0.000056	-0.407426	0.000006	-0.000000	-0.000000	0.000000	0.200000	0.000000	-1.500000	0.000000	0.000000	-0.000000	
1.698000	2.161931	9.429024	-0.612797	0.204951	0.000000	0.846572	-0.000000	-0.006159	0.000000	-0.000000	-0.000000	0.000000	0.200000	0.000000	0.320000	0.000000	0.000000	-0.000000	-0.000000	-0.000000	0.000000	0.200000	0.000000	-0.300000	0.000000	0.000000	-0.000000	0.798099	821.166260	1.379114	0.242692	0.000000	-0.927937	0.000029	-0.418378	0.000014	-0.000000	-0.000000	0.000000	0.200000	0.000000	-1.500000	0.000000	0.000000	-0.000000	
1.699000	2.812100	9.112031	1.000187	0.227376	0.000000	0.818982	-0.000000	-0.201491	0.000000	-0.000000	-0.000000	0.000000	0.200000	0.000000	0.320000	0.000000	0.000000	-0.000000	-0.000000	-0.000000	0.000000	0.200000	0.000000	-0.300000	0.000000	0.000000	-0.000000	0.962230	820.850830	1.539648	0.242596	0.000000	-0.927139	0.000037	-0.350922	0.000017	-0.000000	-0.000000	0.000000	0.200000	0.000000	-1.500000	0.000000	0.000000	-0.000000	
1.700000	2.647196	8.798163	0.515188	0.230717	0.000000	0.805448	-0.000001	-0.079089	0.000000	-0.000000	-0.000000	0.000000	0.200000	0.000000	0.320000	0.000000	0.000000	-0.000000	-0.000000	-0.000000	0.000000	0.200000	0.000000	-0.300000	0.000000	0.000000	-0.000000	-0.016382	821.809753	0.571342	0.242420	0.000000	-0.927675	-0.000008	-0.685233	0.000014	-0.000000	-0.000000	0.000000	0.200000	0.000000	-1.500000	0.000000	0.000000	-0.000000	
1.701000	2.325117	11.002322	0.516037	0.214349	0.000000	0.822919	0.000000	-0.083870	0.000000	-0.000000	-0.000000	0.000000	0.200000	0.000000	0.320000	0.000000	0.000000	-0.000000	-0.000000	-0.000000	0.000000	0.200000	0.000000	-0.300000	0.000000	0.000000	-0.000000	0.471378	820.845703	1.217560	0.242654	0.000000	-0.927449	0.000030	-0.551225	0.000012	-0.000000	-0.000000	0.000000	0.200000	0.000000	-1.500000	0.000000	0.000000	-0.000000	
1.702000	2.163649	9.426033	1.159023	0.204838	0.000000	0.829254	-0.000000	-0.123410	0.000000	-0.000000	-0.000000	0.000000	0.200000	0.000000	0.320000	0.000000	0.000000	-0.000000	-0.000000	-0.000000	0.000000	0.200000	0.000000	-0.300000	0.000000	0.000000	-0.000000	0.795009	821.804749	0.570322	0.242649	0.000000	-0.928252	0.000014	-0.649024	0.000012	-0.000000	-0.000000	0.000000	0.200000	0.000000	-1.500000	0.000000	0.000000	-0.000000	
1.703000	2.001321	10.057663	1.322104	0.225428	0.000000	0.836455	-0.000001	0.006813	0.000000	-0.000000	-0.000000	0.000000	0.200000	0.000000	0.320000	0.000000	0.000000	-0.000000	-0.000000	-0.000000	0.000000	0.200000	0.000000	-0.300000	0.000000	0.000000	-0.000000	0.472924	821.484863	1.377073	0.242604	0.000000	-0.928002	0.000052	-0.551453	0.000005	-0.000000	-0.000000	0.000000	0.200000	0.000000	-1.500000	0.000000	0.000000	-0.000000	
1.704000	2.649773	9.113431	0.192421	0.218107	0.000000	0.800123	-0.000000	-0.314164	0.000000	-0.000000	-0.000000	0.000000	0.200000	0.000000	0.320000	0.000000	0.000000	-0.000000	-0.000000	-0.000000	0.000000	0.200000	0.000000	-0.300000	0.000000	0.000000	-0.000000	0.959140	817.002319	0.896490	0.242974	0.000000	-0.927882	0.000058	-0.415539	0.000008	-0.000000	-0.000000	0.000000	0.200000	0.000000	-1.500000	0.000000	0.000000	-0.000000	
1.705000	2.485727	10.371045	1.159872	0.216223	0.000000	0.831980	-0.000001	0.008906	0.000000	-0.000000	-0.000000	0.000000	0.200000	0.000000	0.320000	0.000000	0.000000	-0.000000	-0.000000	-0.000000	0.000000	0.200000	0.000000	-0.300000	0.000000	0.000000	-0.000000	0.799643	821.161560	0.731876	0.242887	0.000000	-0.927969	0.000039	-0.442429	0.000010	-0.000000	-0.000000	0.000000	0.200000	0.000000	-1.500000	0.000000	0.000000	-0.000000	
